<svg width="18" height="18" viewBox="0 0 18 18" fill="none" xmlns="http://www.w3.org/2000/svg">
<path d="M8.82579 16.8859L9.58586 16.1258C9.76576 15.9459 9.76576 15.6543 9.58586 15.4743L3.63048 9.51899H16.7379C16.9923 9.51899 17.1986 9.31272 17.1986 9.05831V7.9834C17.1986 7.72899 16.9923 7.52273 16.7379 7.52273H3.63048L9.58586 1.56734C9.76576 1.38745 9.76576 1.09576 9.58586 0.915832L8.82579 0.155794C8.6459 -0.0240994 8.35421 -0.0240994 8.17428 0.155794L0.134951 8.19512C-0.0449429 8.37501 -0.0449429 8.6667 0.134951 8.84663L8.17428 16.886C8.35417 17.0659 8.64586 17.0659 8.82579 16.8859Z" fill="#465C6A"/>
</svg>
