<svg id="Layer_1" enable-background="new 0 0 512 512" height="512" viewBox="0 0 512 512" width="512" xmlns="http://www.w3.org/2000/svg"><g id="XMLID_2491_"><g id="XMLID_370_"><path id="XMLID_373_" d="m512 255c0-5.58-2.433-10.59-6.276-14.069-1.283-20.38-9.832-39.384-24.351-53.904-14.123-14.122-20.868-34.357-18.044-54.129 2.495-17.462 1.61-34.998-2.631-52.121l-4.155-16.777h1.387c5.522 0 10-4.477 10-10v-30.222c0-13.111-10.666-23.778-23.778-23.778h-56.444c-13.111 0-23.778 10.667-23.778 23.778v30.222c0 5.523 4.478 10 10 10h1.394l-4.155 16.809c-4.228 17.1-5.107 34.615-2.616 52.058.003.023.008.053.013.084 2.804 19.754-3.942 39.967-18.052 54.076-5.842 5.842-10.717 12.41-14.542 19.5-3.825-7.09-8.7-13.658-14.542-19.5-14.123-14.122-20.868-34.357-18.044-54.129 2.495-17.462 1.61-34.998-2.631-52.121l-4.155-16.777h1.387c5.522 0 10-4.477 10-10v-30.222c-.001-13.111-10.667-23.778-23.778-23.778h-56.444c-13.111 0-23.778 10.667-23.778 23.778v30.222c0 5.523 4.477 10 10 10h1.394l-4.155 16.809c-4.228 17.103-5.108 34.618-2.612 52.089 2.824 19.772-3.921 40.007-18.043 54.129-5.842 5.842-10.717 12.41-14.542 19.5-3.825-7.091-8.7-13.658-14.542-19.5-14.123-14.123-20.868-34.358-18.043-54.129 2.495-17.463 1.609-34.999-2.632-52.121l-4.156-16.777h1.388c5.523 0 10-4.477 10-10v-30.222c-.001-13.111-10.667-23.778-23.778-23.778h-56.445c-13.111 0-23.778 10.667-23.778 23.778v30.222c0 5.523 4.477 10 10 10h1.394l-4.155 16.81c-4.227 17.103-5.107 34.618-2.611 52.088 2.824 19.771-3.921 40.007-18.043 54.129-14.52 14.521-23.07 33.524-24.352 53.904-3.844 3.479-6.276 8.489-6.276 14.069v67.333c0 3.255.825 6.319 2.273 9-1.448 2.681-2.273 5.745-2.273 9v67.333c0 3.255.825 6.319 2.273 9-1.448 2.681-2.273 5.745-2.273 9v67.334c0 10.477 8.523 19 19 19h474c10.477 0 19-8.523 19-19v-67.333c0-3.255-.825-6.319-2.273-9 1.448-2.681 2.273-5.745 2.273-9v-67.333c0-3.255-.825-6.319-2.273-9 1.448-2.681 2.273-5.745 2.273-9zm-492 86.333h191c5.523 0 10-4.477 10-10s-4.477-10-10-10h-191v-65.333h472v65.333h-191c-5.522 0-10 4.477-10 10s4.478 10 10 10h191v65.333h-472zm363.93-317.555c0-2.083 1.695-3.778 3.778-3.778h56.444c2.083 0 3.777 1.695 3.777 3.778v20.222h-64v-20.222zm52.008 40.222 5.346 21.586c2.923 11.799 3.976 23.827 3.153 35.867h-56.991c-.825-12.033.224-24.054 3.139-35.845l5.341-21.608zm-71.282 137.17c15.842-15.843 24.609-37.542 24.522-59.717h53.529c-.087 22.175 8.68 43.874 24.522 59.716 9.563 9.563 15.722 21.685 17.842 34.831h-138.257c2.119-13.146 8.279-25.267 17.842-34.83zm-140.669-177.392c0-2.083 1.695-3.778 3.778-3.778h56.444c2.083 0 3.777 1.695 3.777 3.778v20.222h-64v-20.222zm52.008 40.222 5.346 21.586c2.923 11.799 3.976 23.827 3.153 35.867h-56.991c-.825-12.032.224-24.053 3.138-35.845l5.341-21.608zm-71.282 137.17c15.838-15.838 24.604-37.53 24.519-59.717h53.532c-.087 22.175 8.68 43.874 24.522 59.716 9.563 9.564 15.723 21.686 17.842 34.831h-138.257c2.119-13.146 8.279-25.267 17.842-34.83zm-140.67-177.392c0-2.083 1.695-3.778 3.778-3.778h56.444c2.083 0 3.778 1.695 3.778 3.778v20.222h-64zm52.009 40.222 5.346 21.586c2.922 11.798 3.976 23.827 3.153 35.867h-56.991c-.825-12.032.223-24.053 3.138-35.844l5.342-21.609zm-71.282 137.169c15.838-15.838 24.604-37.53 24.519-59.716h53.532c-.087 22.174 8.68 43.874 24.522 59.717 9.564 9.563 15.723 21.685 17.842 34.83h-138.257c2.119-13.145 8.278-25.267 17.842-34.831zm447.23 290.831h-472v-65.333h472z"/><path id="XMLID_384_" d="m256 321.33c-2.63 0-5.21 1.07-7.07 2.93s-2.93 4.44-2.93 7.07c0 2.64 1.07 5.21 2.93 7.07 1.86 1.87 4.44 2.93 7.07 2.93s5.21-1.06 7.069-2.93c1.86-1.86 2.931-4.43 2.931-7.07 0-2.63-1.07-5.21-2.931-7.07-1.859-1.86-4.439-2.93-7.069-2.93z"/></g></g></svg>