<svg id="Capa_1" enable-background="new 0 0 510.523 510.523" height="512" viewBox="0 0 510.523 510.523" width="512" xmlns="http://www.w3.org/2000/svg"><g><path d="m459.587 131.942c3.898-4.176 6.29-9.775 6.29-15.925v-27.026c0-12.882-10.48-23.363-23.363-23.363h-5.165c-6.632-16.306-14.163-32.736-22.443-48.912-5.278-10.311-15.752-16.716-27.333-16.716h-264.642c-11.555 0-22.017 6.383-27.304 16.659-8.322 16.174-15.891 32.624-22.553 48.97h-4.998c-12.883 0-23.363 10.48-23.363 23.363v27.026c0 6.084 2.339 11.631 6.164 15.792-13.921 52.785-18.895 106.404-14.721 159.454.309 3.929 3.593 6.912 7.469 6.912.196 0 .396-.008.596-.023 4.13-.325 7.214-3.936 6.889-8.065-3.949-50.205.555-100.958 13.355-150.988 1.177.184 2.383.28 3.612.28h77.638c-9.814 76.724-9.762 154.603.155 231.761h-77.793c-1.126 0-2.232.085-3.316.239-4.257-16.576-7.653-33.348-10.107-49.969-.605-4.098-4.419-6.934-8.516-6.324-4.098.605-6.929 4.417-6.324 8.515 2.697 18.258 6.511 36.683 11.309 54.852-3.968 4.189-6.409 9.838-6.409 16.049v27.026c0 12.882 10.48 23.363 23.363 23.363h5.271c6.594 16.27 14.074 32.674 22.293 48.835 5.266 10.358 15.753 16.793 27.371 16.793h57.098c.008 0 .016.002.024.002.01 0 .02-.002.029-.002h150.239c.01 0 .02.002.029.002.008 0 .016-.002.024-.002h57.119c11.581 0 22.055-6.405 27.334-16.717 8.278-16.175 15.81-32.605 22.442-48.911h5.165c12.883 0 23.363-10.48 23.363-23.363v-27.026c0-6.153-2.395-11.754-6.296-15.931 21.618-81.854 21.624-164.776.005-246.63zm-211.47-116.942v50.628h-74.57c3.62-16.895 7.751-33.864 12.312-50.628zm15 0h61.579c4.54 16.778 8.654 33.746 12.262 50.628h-73.841zm-154.151 8.521c2.704-5.256 8.055-8.521 13.965-8.521h47.392c-4.493 16.786-8.55 33.751-12.108 50.628h-68.898c5.911-14.07 12.489-28.19 19.649-42.107zm-49.252 92.496v-27.026c0-4.611 3.752-8.363 8.363-8.363h305.119c4.143 0 7.5-3.358 7.5-7.5s-3.357-7.5-7.5-7.5h-20.907c-3.547-16.864-7.589-33.83-12.063-50.628h47.347c5.924 0 11.281 3.277 13.98 8.551 7.126 13.923 13.673 28.032 19.559 42.077h-15.953c-4.143 0-7.5 3.358-7.5 7.5s3.357 7.5 7.5 7.5h37.354c4.611 0 8.363 3.751 8.363 8.363v27.026c0 4.611-3.752 8.363-8.363 8.363h-374.436c-4.611 0-8.363-3.752-8.363-8.363zm289.951 255.124h-86.548v-231.761h86.548c10.041 76.931 10.041 154.831 0 231.761zm-188.825-231.761h87.277v231.761h-87.12c-10.084-77.154-10.137-155.054-.157-231.761zm-51.829 347.551c-7.078-13.918-13.586-28.014-19.437-42.038h68.781c3.533 16.861 7.551 33.827 11.995 50.628h-47.34c-5.941 0-11.305-3.291-13.999-8.59zm154.106 8.59v-50.628h73.842c-3.609 16.882-7.722 33.851-12.263 50.628zm-15 0h-62.239c-4.511-16.781-8.602-33.749-12.195-50.628h74.434zm153.437-8.551c-2.7 5.275-8.058 8.552-13.981 8.552h-47.343c4.472-16.798 8.512-33.764 12.059-50.628h68.825c-5.885 14.044-12.434 28.153-19.56 42.076zm49.323-65.44c0 4.611-3.752 8.363-8.363 8.363h-374.437c-4.611 0-8.363-3.751-8.363-8.363v-27.026c0-4.611 3.752-8.363 8.363-8.363h315.181c4.143 0 7.5-3.358 7.5-7.5s-3.357-7.5-7.5-7.5h-18.466c9.874-76.941 9.874-154.82 0-231.761h77.722c1.176 0 2.332-.089 3.462-.258 19.785 77.108 19.785 155.168 0 232.277-1.13-.169-2.285-.258-3.462-.258h-27.294c-4.143 0-7.5 3.358-7.5 7.5s3.357 7.5 7.5 7.5h27.294c4.611 0 8.363 3.751 8.363 8.363z"/><path d="m258.94 95.004h-6.646c-4.143 0-7.5 3.358-7.5 7.5s3.357 7.5 7.5 7.5h6.646c4.143 0 7.5-3.358 7.5-7.5s-3.357-7.5-7.5-7.5z"/><path d="m186.783 95.004h-6.645c-4.143 0-7.5 3.358-7.5 7.5s3.357 7.5 7.5 7.5h6.645c4.143 0 7.5-3.358 7.5-7.5s-3.358-7.5-7.5-7.5z"/><path d="m114.627 95.004h-6.646c-4.143 0-7.5 3.358-7.5 7.5s3.357 7.5 7.5 7.5h6.646c4.143 0 7.5-3.358 7.5-7.5s-3.358-7.5-7.5-7.5z"/><path d="m330.404 95.004h-6.645c-4.143 0-7.5 3.358-7.5 7.5s3.357 7.5 7.5 7.5h6.645c4.143 0 7.5-3.358 7.5-7.5s-3.357-7.5-7.5-7.5z"/><path d="m402.561 95.004h-6.646c-4.143 0-7.5 3.358-7.5 7.5s3.357 7.5 7.5 7.5h6.646c4.143 0 7.5-3.358 7.5-7.5s-3.357-7.5-7.5-7.5z"/><path d="m258.94 400.517h-6.646c-4.143 0-7.5 3.358-7.5 7.5s3.357 7.5 7.5 7.5h6.646c4.143 0 7.5-3.358 7.5-7.5s-3.357-7.5-7.5-7.5z"/><path d="m186.783 400.517h-6.645c-4.143 0-7.5 3.358-7.5 7.5s3.357 7.5 7.5 7.5h6.645c4.143 0 7.5-3.358 7.5-7.5s-3.358-7.5-7.5-7.5z"/><path d="m114.627 400.517h-6.646c-4.143 0-7.5 3.358-7.5 7.5s3.357 7.5 7.5 7.5h6.646c4.143 0 7.5-3.358 7.5-7.5s-3.358-7.5-7.5-7.5z"/><path d="m330.404 400.517h-6.645c-4.143 0-7.5 3.358-7.5 7.5s3.357 7.5 7.5 7.5h6.645c4.143 0 7.5-3.358 7.5-7.5s-3.357-7.5-7.5-7.5z"/><path d="m402.561 400.517h-6.646c-4.143 0-7.5 3.358-7.5 7.5s3.357 7.5 7.5 7.5h6.646c4.143 0 7.5-3.358 7.5-7.5s-3.357-7.5-7.5-7.5z"/></g></svg>