<svg width="43" height="49" viewBox="0 0 43 49" fill="none" xmlns="http://www.w3.org/2000/svg">
<path d="M21.5 27.5625C28.2859 27.5625 33.7857 22.0778 33.7857 15.3125V0L27.6429 3.0625L21.5 0L15.3571 3.0625L9.21429 0V15.3125C9.21429 22.0778 14.715 27.5625 21.5 27.5625ZM13.8214 12.25H29.1786V15.3125C29.1786 19.534 25.7338 22.9688 21.5 22.9688C17.2662 22.9688 13.8214 19.534 13.8214 15.3125V12.25ZM30.1 29.0938C29.0404 29.0938 28.0095 29.3426 27.0094 29.6909C25.2817 30.292 23.4312 30.625 21.5 30.625C19.5698 30.625 17.7183 30.292 15.9916 29.6909C14.9915 29.3426 13.9596 29.0938 12.9 29.0938C5.77524 29.0938 0 34.8522 0 41.9562V44.4062C0 46.9433 2.06266 49 4.60714 49H38.3929C40.9373 49 43 46.9433 43 44.4062V41.9562C43 34.8522 37.2248 29.0938 30.1 29.0938ZM38.3929 44.4062H4.60714V41.9562C4.60714 37.397 8.32741 33.6875 12.9 33.6875C13.3012 33.6875 13.8147 33.7985 14.4722 34.0272C16.7431 34.8178 19.1072 35.2188 21.5 35.2188C23.8928 35.2188 26.2569 34.8178 28.5278 34.0272C29.1853 33.7985 29.6998 33.6875 30.1 33.6875C34.6726 33.6875 38.3929 37.397 38.3929 41.9562V44.4062Z" fill="#8396A2"/>
</svg>
