<svg id="Layer_1" enable-background="new 0 0 512.005 512.005" height="512" viewBox="0 0 512.005 512.005" width="512" xmlns="http://www.w3.org/2000/svg"><g id="XMLID_950_"><g id="XMLID_70_"><path id="XMLID_151_" d="m508.002 184.517c-8.777-6.58-18.211-11.986-28.112-16.197 15.915-22.493 24.563-49.463 24.563-77.271 0-11.248-1.403-22.438-4.171-33.259-.906-3.539-3.669-6.303-7.208-7.209-38.342-9.813-78.73-2.194-110.558 20.329-4.207-9.878-9.605-19.292-16.171-28.051-2.192-2.925-5.813-4.416-9.419-3.901-11.059 1.585-21.934 4.57-32.323 8.874-17.527 7.26-33.357 18.219-46.274 31.939-1.053-.195-2.139-.244-3.23-.088-11.058 1.584-21.933 4.569-32.323 8.873-32.125 13.307-56.323 37.762-69.981 67.035-2.897-2.042-5.865-3.979-8.903-5.779-3.143-1.862-7.052-1.861-10.195.001-9.61 5.694-18.515 12.615-26.467 20.567-52.181 52.181-52.181 137.086 0 189.266 3.112 3.113 6.385 6.071 9.785 8.864l-25.133 25.135c-16.833 16.831-43.024 20.335-63.694 8.52-12.662-7.237-28.618-5.181-38.803 5.004-7.101 7.102-10.418 16.885-9.101 26.841 1.319 9.972 7.079 18.57 15.802 23.592 17.67 10.17 37.858 15.546 58.379 15.546 31.275 0 60.648-12.148 82.709-34.208l25.139-25.14c2.804 3.417 5.775 6.708 8.902 9.835 13.42 13.419 29.145 23.637 46.739 30.368 1.176.45 2.383.663 3.571.663 4.024 0 7.818-2.447 9.342-6.43 1.974-5.158-.608-10.939-5.767-12.913-14.952-5.721-28.324-14.411-39.744-25.831-3.174-3.174-6.142-6.554-8.918-10.069 44.872-.12 84.622-22.434 108.827-56.525 30.565 5.296 58.071 23.238 75.369 49.169-4.162 6.24-8.954 12.083-14.295 17.425-11.436 11.434-24.825 20.132-39.799 25.852-5.159 1.971-7.744 7.751-5.773 12.91 1.522 3.985 5.317 6.435 9.344 6.435 1.186 0 2.393-.213 3.566-.661 17.619-6.73 33.366-16.956 46.804-30.394 7.953-7.954 14.873-16.859 20.566-26.468 1.863-3.143 1.863-7.051.001-10.194-1.8-3.038-3.724-5.987-5.748-8.854 30.136-14.094 54.162-39.027 67.005-70.03 4.304-10.392 7.289-21.267 8.873-32.323.156-1.092.108-2.179-.087-3.231 13.719-12.916 24.677-28.747 31.937-46.272 4.304-10.391 7.289-21.267 8.873-32.324.52-3.618-.975-7.23-3.899-9.421zm-25.76-115.901c1.469 7.357 2.212 14.878 2.212 22.434 0 25.696-8.677 50.552-24.531 70.593-6.051-1.504-12.218-2.598-18.476-3.247.048-1.469.08-2.941.08-4.418 0-11.246-1.403-22.436-4.172-33.259-.906-3.539-3.669-6.303-7.208-7.209-12.322-3.154-25.027-4.521-37.68-4.114-.651-6.273-1.75-12.454-3.261-18.52 26.17-20.713 60.195-28.854 93.036-22.26zm-99.502 170.952c-16.079.506-32.039 3.92-47.046 10.136-2.165.896-4.305 1.857-6.422 2.866-.663-6.834-1.84-13.603-3.536-20.233-.906-3.539-3.669-6.303-7.208-7.209-6.655-1.704-13.423-2.877-20.233-3.542 1.007-2.115 1.967-4.252 2.863-6.416 6.225-15.027 9.641-31.01 10.14-47.111 1.631-1.854 3.307-3.682 5.052-5.427 26.872-26.871 65.841-38.499 102.964-31.086 1.469 7.357 2.212 14.876 2.212 22.43 0 32.916-14.099 63.937-38.786 85.592zm-50.483-173.258c6.979-2.892 14.213-5.083 21.574-6.542 10.444 15.546 16.84 33.211 18.757 51.762-3.357.614-6.696 1.34-10.003 2.212-19.574 5.158-37.745 14.775-53.094 28.004-2.832-16.694-8.828-32.749-17.589-47.213 11.159-12.164 24.989-21.858 40.355-28.223zm-81.828 40.725c6.978-2.891 14.21-5.083 21.569-6.54 21.06 31.458 25.227 71.913 10.683 107.022-1.961 4.734-4.248 9.339-6.809 13.749-8.393.581-16.737 1.943-24.904 4.094-22.721 5.987-43.561 17.97-60.279 34.653-.65-1.405-1.274-2.822-1.866-4.251-24.02-57.989 3.616-124.708 61.606-148.727zm-142.398 157.98c0-30.406 11.841-58.991 33.341-80.492 5.341-5.341 11.184-10.134 17.425-14.297 2.287 1.524 4.515 3.141 6.688 4.826-8.177 28.18-7.215 59.209 4.862 88.364 1.854 4.475 3.971 8.855 6.292 13.101-9.546 13.241-16.628 28.147-20.797 43.969-2.922 11.088-4.394 22.501-4.42 33.92-3.508-2.771-6.882-5.733-10.049-8.901-21.501-21.5-33.342-50.085-33.342-80.49zm35.001 159.781c-18.283 18.282-42.634 28.351-68.567 28.351-17.025 0-33.763-4.454-48.402-12.88-3.286-1.891-5.456-5.129-5.952-8.882-.495-3.737.75-7.409 3.416-10.074 3.823-3.823 9.882-4.558 14.734-1.783 28.48 16.279 64.568 11.452 87.762-11.74l27.791-27.792c.516 2.699 1.111 5.385 1.794 8.052.906 3.539 3.67 6.302 7.209 7.208 2.638.675 5.299 1.266 7.977 1.778zm53.044-45.369c-7.554 0-15.073-.743-22.431-2.212-7.418-37.123 4.214-76.093 31.086-102.964 26.871-26.872 65.839-38.505 102.964-31.086 1.469 7.357 2.212 14.876 2.212 22.43.001 62.768-51.064 113.832-113.831 113.832zm247.754-78.993c-11.598 27.997-33.919 50.176-61.8 61.679-17.881-18.431-40.844-31.544-65.91-37.402 7.504-15.175 12.213-31.966 13.452-49.701 4.421-2.569 9.033-4.865 13.775-6.829 35.107-14.543 75.563-10.378 107.021 10.683-1.456 7.359-3.649 14.59-6.538 21.57zm40.723-81.828c-6.365 15.365-16.061 29.197-28.223 40.353-14.477-8.769-30.548-14.768-47.258-17.596 15.541-18 25.946-39.747 30.234-63.092 18.56 1.914 36.235 8.312 51.788 18.76-1.458 7.361-3.65 14.594-6.541 21.575z"/><path id="XMLID_168_" d="m285.844 442.832c-2.63 0-5.21 1.069-7.07 2.93-1.859 1.86-2.93 4.44-2.93 7.07s1.07 5.21 2.93 7.069c1.86 1.86 4.44 2.931 7.07 2.931 2.64 0 5.21-1.07 7.07-2.931 1.87-1.859 2.93-4.439 2.93-7.069s-1.06-5.21-2.93-7.07c-1.86-1.86-4.43-2.93-7.07-2.93z"/></g></g></svg>