<?xml version="1.0" encoding="UTF-8"?>
<svg width="43px" height="49px" viewBox="0 0 43 49" version="1.1" xmlns="http://www.w3.org/2000/svg" xmlns:xlink="http://www.w3.org/1999/xlink">
    <title>user-ninja 1</title>
    <g id="Page-1" stroke="none" stroke-width="1" fill="none" fill-rule="evenodd">
        <g id="user-ninja-1" fill="#8396A2" fill-rule="nonzero">
            <path d="M3.07143,19.9062 C5.08705,19.9062 6.93951,19.2459 8.45603,18.1453 C10.2893,23.6004 15.4051,27.5625 21.5,27.5625 C29.1306,27.5625 35.3214,21.3896 35.3214,13.7812 C35.3214,6.17285 29.1306,0 21.5,0 C16.269,0 11.7674,2.93809 9.41585,7.21602 C7.76496,5.61777 5.55737,4.59375 3.07143,4.59375 C3.07143,7.79023 4.71272,10.6039 7.20826,12.25 C4.71272,13.8961 3.07143,16.7098 3.07143,19.9062 Z M21.5,4.59375 C24.8978,4.59375 27.8348,6.45039 29.4281,9.1875 L13.5719,9.1875 C15.1652,6.45039 18.1022,4.59375 21.5,4.59375 Z M30.7143,13.7812 C30.7143,18.8439 26.5775,22.9688 21.5,22.9688 C16.4225,22.9688 12.2857,18.8439 12.2857,13.7812 L30.7143,13.7812 Z M31.2326,27.6773 L21.5,35.2188 L11.7674,27.6773 C5.18304,28.2611 0,33.7066 0,40.425 L0,44.4062 C0,46.9424 2.06362,49 4.60714,49 L38.3929,49 C40.9364,49 43,46.9424 43,44.4062 L43,40.425 C43,33.7066 37.817,28.2611 31.2326,27.6773 Z M19.1964,44.4062 L4.60714,44.4062 L4.60714,40.425 C4.60714,36.7021 7.07388,33.5535 10.5484,32.5582 L19.1964,39.2574 L19.1964,44.4062 Z M38.3929,44.4062 L23.8036,44.4062 L23.8036,39.2479 L32.4516,32.5486 C35.9357,33.5535 38.3929,36.6926 38.3929,40.4154 L38.3929,44.4062 Z" id="Shape"></path>
        </g>
    </g>
</svg>