<svg width="41" height="47" viewBox="0 0 41 47" fill="none" xmlns="http://www.w3.org/2000/svg">
<path d="M32.8183 30.1828C34.6944 28.3285 36.1496 26.0428 37.0464 23.5H38.0714C38.8768 23.5 39.5357 22.8391 39.5357 22.0312V13.2188C39.5357 12.4109 38.8768 11.75 38.0714 11.75H37.0464C34.6395 4.91113 28.1509 0 20.5 0C12.8491 0 6.36049 4.91113 3.95357 11.75H2.92857C2.12321 11.75 1.46429 12.4109 1.46429 13.2188V22.0312C1.46429 22.8391 2.12321 23.5 2.92857 23.5H3.95357C4.85045 26.0428 6.30558 28.3285 8.1817 30.1828C3.42277 31.8811 0 36.3607 0 41.7125V44.7969C0 46.0178 0.979241 47 2.19643 47C3.41362 47 4.39286 46.0178 4.39286 44.7969V41.7125C4.39286 37.343 7.94375 33.7812 12.3 33.7812H13.4897C15.6404 34.7176 18.0107 35.25 20.5 35.25C22.9893 35.25 25.3596 34.7176 27.5103 33.7812H28.7C33.0563 33.7812 36.6071 37.343 36.6071 41.7125V44.7969C36.6071 46.0178 37.5864 47 38.8036 47C40.0208 47 41 46.0178 41 44.7969V41.7125C41 36.3607 37.5772 31.8811 32.8183 30.1828ZM20.5 30.8438C13.2335 30.8438 7.32143 24.9137 7.32143 17.625C7.32143 10.3363 13.2335 4.40625 20.5 4.40625C27.7665 4.40625 33.6786 10.3363 33.6786 17.625C33.6786 24.9137 27.7665 30.8438 20.5 30.8438ZM27.8214 38.1875H13.1786C11.5587 38.1875 10.25 39.5002 10.25 41.125V47H14.6429V42.5938C14.6429 41.7859 15.3018 41.125 16.1071 41.125C16.9125 41.125 17.5714 41.7859 17.5714 42.5938V47H30.75V41.125C30.75 39.5002 29.4413 38.1875 27.8214 38.1875ZM24.8929 44.0625C24.0875 44.0625 23.4286 43.4016 23.4286 42.5938C23.4286 41.7859 24.0875 41.125 24.8929 41.125C25.6982 41.125 26.3571 41.7859 26.3571 42.5938C26.3571 43.4016 25.6982 44.0625 24.8929 44.0625ZM26.3571 11.75H14.6429C12.2176 11.75 10.25 13.7236 10.25 16.1562V17.625C10.25 22.4902 14.1853 26.4375 19.0357 26.4375H21.9643C26.8147 26.4375 30.75 22.4902 30.75 17.625V16.1562C30.75 13.7236 28.7824 11.75 26.3571 11.75ZM18.6696 20.1953L17.5714 23.5L16.4732 20.1953L13.1786 19.0938L16.4732 17.9922L17.5714 14.6875L18.6696 17.9922L21.9643 19.0938L18.6696 20.1953Z" fill="#8396A2"/>
</svg>
