<svg width="43" height="49" viewBox="0 0 43 49" fill="none" xmlns="http://www.w3.org/2000/svg">
<g clip-path="url(#clip0)">
<path d="M21.5 26.0312C19.7308 26.0288 18.0165 25.4183 16.6462 24.3026C15.2758 23.1869 14.3331 21.6342 13.9769 19.9062H9.36978C10.1376 25.9413 15.241 30.625 21.501 30.625C27.7609 30.625 32.8691 25.9413 33.6321 19.9062H29.025C28.6688 21.6345 27.7258 23.1874 26.355 24.3032C24.9842 25.419 23.2695 26.0293 21.5 26.0312ZM30.1 33.6875C27.3434 33.6875 26.0256 35.2188 21.5 35.2188C16.9744 35.2188 15.6566 33.6875 12.9038 33.6875C11.2095 33.687 9.53159 34.0193 7.96604 34.6655C6.4005 35.3117 4.97796 36.259 3.77968 37.4535C2.5814 38.6479 1.63085 40.066 0.982321 41.6269C0.333795 43.1876 -7.50414e-08 44.8605 0 46.55C0 47.1998 0.258877 47.8229 0.71968 48.2824C1.18048 48.7419 1.80547 49 2.45714 49H40.5429C41.1945 49 41.8195 48.7419 42.2803 48.2824C42.7411 47.8229 43 47.1998 43 46.55C43 43.1387 41.6409 39.867 39.2217 37.4548C36.8025 35.0427 33.5213 33.6875 30.1 33.6875ZM4.88933 44.4062C5.3653 42.6495 6.40805 41.0978 7.85656 39.9908C9.30507 38.8838 11.0788 38.283 12.9038 38.2812C14.2898 38.2812 16.578 39.8125 21.5 39.8125C26.4402 39.8125 28.7083 38.2812 30.1 38.2812C31.9245 38.2834 33.6976 38.8843 35.1454 39.9914C36.5933 41.0984 37.6353 42.6499 38.1107 44.4062H4.88933ZM8.44643 16.8438H34.5536C34.7572 16.8438 34.9525 16.7631 35.0965 16.6195C35.2405 16.4759 35.3214 16.2812 35.3214 16.0781V13.0156C35.3214 12.8126 35.2405 12.6178 35.0965 12.4742C34.9525 12.3307 34.7572 12.25 34.5536 12.25H33.7857C33.7857 7.80842 31.0473 4.06355 27.1831 2.44809L24.5714 7.65625V1.53125C24.5714 1.12514 24.4096 0.735658 24.1216 0.448493C23.8336 0.161328 23.443 0 23.0357 0L19.9643 0C19.557 0 19.1664 0.161328 18.8784 0.448493C18.5904 0.735658 18.4286 1.12514 18.4286 1.53125V7.65625L15.8169 2.44809C11.9527 4.06355 9.21429 7.80842 9.21429 12.25H8.44643C8.24278 12.25 8.04747 12.3307 7.90347 12.4742C7.75947 12.6178 7.67857 12.8126 7.67857 13.0156V16.0781C7.67857 16.2812 7.75947 16.4759 7.90347 16.6195C8.04747 16.7631 8.24278 16.8438 8.44643 16.8438Z" fill="#8396A2"/>
</g>
<defs>
<clipPath id="clip0">
<rect width="43" height="49" fill="white"/>
</clipPath>
</defs>
</svg>
